<svg xmlns="http://www.w3.org/2000/svg" width="437" height="270" fill="none"><mask id="a" width="437" height="270" x="0" y="0" maskUnits="userSpaceOnUse" style="mask-type:alpha"><path fill="#D9D9D9" d="M.64 0H436.5v254c0 8.837-7.163 16-16 16H.641V0Z"/></mask><g mask="url(#a)"><mask id="b" width="491" height="270" x="11" y="0" maskUnits="userSpaceOnUse" style="mask-type:luminance"><path fill="#fff" d="M11.975 270 446.486 0h55.346v270H11.975Z"/></mask><g stroke="#EEE" stroke-miterlimit="10" stroke-width="1.5" mask="url(#b)"><path d="M55.346 230.659H501.46M53.73 196.267h446.115M53.73 161.875h446.115M53.73 134.483h446.115M53.73 107.089h446.115M53.73 79.696h446.115M53.73 52.304h446.115M53.73 24.91h446.115"/></g><path stroke="#EEE" stroke-miterlimit="10" stroke-width="1.5" d="M446.199 0 11.687 270M483.387 0 354.602 270M275.561 270 474.225 0M465.062 0 188.27 270M109.914 270 455.899 0"/><circle cx="242.651" cy="178.536" r="133.536" fill="#202124"/><path fill="url(#c)" d="m242.713 45.002.271 133.536H376.31c0-72.374-59.131-133.536-133.597-133.536Z"/><path stroke="#202124" d="m242.713 45.002.271 133.536H376.31c0-72.374-59.131-133.536-133.597-133.536Z"/><path fill="url(#d)" d="M242.713 312.473c-73.785 0-133.598-59.816-133.598-133.598h133.598v133.598Z"/><path stroke="#202124" d="M242.713 312.473c-73.785 0-133.598-59.816-133.598-133.598h133.598v133.598Z"/><path stroke="#EEE" stroke-linejoin="round" stroke-width="1.5" d="M109.168 178.873H376.24M242.713 312.471c73.784 0 133.597-59.814 133.597-133.598 0-73.783-59.813-133.597-133.597-133.597S109.115 105.09 109.115 178.873c0 73.784 59.814 133.598 133.598 133.598Z"/><path stroke="#EEE" stroke-linejoin="round" stroke-width="1.5" d="M242.713 312.471c59.469 0 107.678-59.814 107.678-133.598 0-73.783-48.209-133.597-107.678-133.597-59.469 0-107.678 59.814-107.678 133.597 0 73.784 48.209 133.598 107.678 133.598Z"/><path stroke="#EEE" stroke-linejoin="round" stroke-width="1.5" d="M242.713 312.471c41.128 0 74.469-59.814 74.469-133.598 0-73.783-33.341-133.597-74.469-133.597-41.128 0-74.469 59.814-74.469 133.597 0 73.784 33.341 133.598 74.469 133.598Z"/><path stroke="#EEE" stroke-linejoin="round" stroke-width="1.5" d="M242.713 312.471c20.665 0 37.417-59.814 37.417-133.598 0-73.783-16.752-133.597-37.417-133.597-20.666 0-37.418 59.814-37.418 133.597 0 73.784 16.752 133.598 37.418 133.598ZM242.713 45.276v267.198"/><path stroke="#EEE" stroke-linejoin="round" stroke-width="1.5" d="M295.452 56.09c-15.518 8.964-33.529 14.094-52.74 14.094-19.21 0-37.221-5.13-52.739-14.094M138.588 262.588c31.271-15.879 66.653-24.828 104.125-24.828 37.472 0 72.853 8.949 104.124 24.828M349.286 98.294c-31.867 16.664-68.118 26.09-106.571 26.09-38.452 0-74.703-9.424-106.57-26.09"/><path fill="#202124" stroke="#202124" stroke-linejoin="round" stroke-width="1.5" d="M82.07 79.438h82.642c1.139 0 2.062.924 2.062 2.065v35.849c0 1.14-.923 2.065-2.062 2.065h-12.511l.106.047v16.296c0 1.838-2.223 2.763-3.522 1.462l-17.727-17.754.137-.047H82.07a2.064 2.064 0 0 1-2.062-2.065V81.503c0-1.14.923-2.066 2.062-2.066Z"/><path fill="#202124" stroke="#EEE" stroke-linejoin="round" stroke-width="1.5" d="M76.562 74.608h82.642c1.139 0 2.062.925 2.062 2.066v35.849c0 1.14-.923 2.065-2.062 2.065h-12.511l.106.047v16.296c0 1.838-2.223 2.763-3.522 1.462l-17.727-17.754.137-.047H76.562a2.064 2.064 0 0 1-2.062-2.066V76.674c0-1.14.924-2.066 2.062-2.066Z"/><path fill="#EEE" d="M100.223 86.358h2.191v5.95h6.676v-5.95h2.172v14.294h-2.172v-6.267h-6.676v6.267h-2.191V86.358ZM115.969 100.26a5.004 5.004 0 0 1-1.894-1.948c-.45-.827-.677-1.744-.677-2.755s.227-1.928.677-2.755a4.976 4.976 0 0 1 1.894-1.948c.81-.474 1.726-.71 2.751-.71 1.026 0 1.922.24 2.732.718a5.078 5.078 0 0 1 1.894 1.955c.45.827.677 1.737.677 2.736 0 1-.227 1.928-.677 2.755a5.001 5.001 0 0 1-1.882 1.948c-.803.474-1.718.709-2.74.709-1.021 0-1.941-.235-2.751-.709l-.004.004Zm4.324-1.685a3.096 3.096 0 0 0 1.155-1.2c.293-.517.438-1.124.438-1.814s-.145-1.297-.438-1.815a3.18 3.18 0 0 0-1.155-1.199 3.028 3.028 0 0 0-1.573-.42 3.096 3.096 0 0 0-2.751 1.619c-.293.518-.438 1.125-.438 1.815s.145 1.297.438 1.814c.294.522.681.918 1.167 1.2a3.13 3.13 0 0 0 1.584.419c.572 0 1.096-.141 1.573-.42ZM125.893 86.358h2.152v14.294h-2.152V86.358ZM131.712 100.542a3.219 3.219 0 0 1-1.334-1.207c-.317-.517-.478-1.11-.478-1.775 0-.706.188-1.313.56-1.827.372-.513.877-.905 1.514-1.18.638-.274 1.35-.407 2.133-.407.599 0 1.139.059 1.624.168.485.114.873.244 1.166.389v-.541c0-.65-.239-1.18-.716-1.588-.477-.407-1.096-.607-1.855-.607-.516 0-1.009.118-1.475.349a2.901 2.901 0 0 0-1.115.948l-1.476-1.136a4.459 4.459 0 0 1 1.746-1.458 5.468 5.468 0 0 1 2.383-.518c1.459 0 2.594.365 3.396 1.09.803.725 1.206 1.74 1.206 3.045v6.369h-2.094v-1.258h-.121c-.294.454-.712.827-1.256 1.128-.544.298-1.162.451-1.855.451-.732 0-1.381-.145-1.953-.427v-.008Zm3.788-1.716a2.847 2.847 0 0 0 1.393-2.465 4.195 4.195 0 0 0-1.095-.44 5.197 5.197 0 0 0-1.296-.16c-.837 0-1.451.164-1.843.497-.391.334-.587.773-.587 1.317 0 .478.18.87.54 1.176.36.306.838.459 1.436.459a2.81 2.81 0 0 0 1.456-.388l-.004.004Z"/><path fill="#202124" stroke="#202124" stroke-linejoin="round" stroke-width="1.5" d="M399.823 204.055h-92.968c-1.124 0-2.035.91-2.035 2.033v35.278c0 1.122.911 2.032 2.035 2.032h12.34l-.104.047v16.036c0 1.809 2.192 2.719 3.474 1.439l17.486-17.472-.135-.046h59.907c1.123 0 2.034-.91 2.034-2.032v-35.282a2.034 2.034 0 0 0-2.034-2.033Z"/><path fill="#202124" stroke="#EEE" stroke-linejoin="round" stroke-width="1.5" d="M404.466 197.091h-92.969c-1.123 0-2.034.91-2.034 2.032v35.278c0 1.123.911 2.033 2.034 2.033h12.341l-.105.046v16.037c0 1.809 2.193 2.719 3.474 1.438l17.486-17.471-.135-.046h59.908c1.123 0 2.034-.91 2.034-2.033v-35.282a2.033 2.033 0 0 0-2.034-2.032Z"/><path fill="#EEE" d="M325.645 208.812h5.268c.749 0 1.44.165 2.085.489.641.328 1.15.776 1.525 1.346a3.39 3.39 0 0 1 .559 1.898c0 .694-.173 1.3-.521 1.816-.347.517-.81.914-1.386 1.188v.097c.734.25 1.317.659 1.749 1.238.432.578.648 1.257.648 2.044 0 .787-.2 1.458-.598 2.052a4.097 4.097 0 0 1-1.613 1.396 4.91 4.91 0 0 1-2.212.501h-5.504v-14.065Zm5.172 5.912c.656 0 1.181-.201 1.571-.598.39-.397.591-.86.591-1.384 0-.525-.193-.98-.579-1.366-.386-.385-.888-.578-1.506-.578h-3.088v3.93h3.007l.004-.004Zm.336 6.148c.683 0 1.227-.209 1.64-.617.413-.413.618-.907.618-1.485 0-.579-.212-1.072-.641-1.493-.425-.42-.992-.628-1.702-.628h-3.266v4.223h3.351ZM339.602 222.491a4.929 4.929 0 0 1-1.868-1.916c-.444-.814-.668-1.717-.668-2.712 0-.995.224-1.897.668-2.711a4.904 4.904 0 0 1 1.868-1.917c.799-.466 1.703-.698 2.714-.698s1.895.235 2.694.706a5.006 5.006 0 0 1 1.869 1.924c.443.814.667 1.709.667 2.692 0 .984-.224 1.898-.667 2.712a4.931 4.931 0 0 1-1.857 1.917c-.791.466-1.695.698-2.702.698-1.008 0-1.915-.232-2.714-.698l-.004.003Zm4.266-1.658a3.043 3.043 0 0 0 1.138-1.18c.29-.509.433-1.107.433-1.786s-.143-1.276-.433-1.786a3.128 3.128 0 0 0-1.138-1.18 3.002 3.002 0 0 0-1.552-.412 3.06 3.06 0 0 0-2.714 1.592c-.289.51-.432 1.107-.432 1.786s.143 1.277.432 1.786c.29.513.672.902 1.151 1.18a3.09 3.09 0 0 0 1.563.413c.564 0 1.081-.139 1.552-.413ZM349.295 212.858h2.003v1.373h.12c.289-.498.722-.903 1.297-1.219a3.82 3.82 0 0 1 1.868-.47c1.204 0 2.123.358 2.752 1.072.629.713.942 1.693.942 2.935v6.325h-2.104v-6.051c0-.787-.196-1.373-.59-1.759-.394-.386-.93-.579-1.614-.579-.498 0-.942.139-1.328.413-.386.274-.687.64-.903 1.099a3.463 3.463 0 0 0-.324 1.493v5.384h-2.123v-10.02l.004.004ZM358.906 227.293v-2.044c.313.17.622.255.923.255.366 0 .629-.112.787-.336.159-.224.236-.563.236-1.01v-11.301h2.123v11.308c0 1.111-.27 1.932-.807 2.465-.537.536-1.258.802-2.162.802-.405 0-.772-.046-1.1-.139Zm1.996-16.333a1.378 1.378 0 0 1-.425-1.011c0-.393.139-.725.425-1.003a1.402 1.402 0 0 1 1.011-.412c.394 0 .73.139 1.012.412.281.274.424.61.424 1.003 0 .394-.143.729-.424 1.011a1.38 1.38 0 0 1-1.012.42c-.394 0-.729-.139-1.011-.42ZM367.518 222.491a4.929 4.929 0 0 1-1.868-1.916c-.444-.814-.668-1.717-.668-2.712 0-.995.224-1.897.668-2.711a4.904 4.904 0 0 1 1.868-1.917c.799-.466 1.703-.698 2.714-.698s1.895.235 2.694.706a5.006 5.006 0 0 1 1.869 1.924c.443.814.667 1.709.667 2.692 0 .984-.224 1.898-.667 2.712a4.931 4.931 0 0 1-1.857 1.917c-.791.466-1.695.698-2.702.698-1.008 0-1.915-.232-2.714-.698l-.004.003Zm4.266-1.658a3.043 3.043 0 0 0 1.138-1.18c.29-.509.433-1.107.433-1.786s-.143-1.276-.433-1.786a3.128 3.128 0 0 0-1.138-1.18 3.002 3.002 0 0 0-1.552-.412 3.06 3.06 0 0 0-2.714 1.592c-.289.51-.432 1.107-.432 1.786s.143 1.277.432 1.786c.29.513.672.902 1.151 1.18a3.09 3.09 0 0 0 1.563.413c.564 0 1.081-.139 1.552-.413ZM378.188 222.098c-.637-.725-.954-1.739-.954-3.035v-6.206h2.123v5.913c0 .814.19 1.427.572 1.847.378.421.891.629 1.532.629.525 0 .988-.139 1.397-.413a2.68 2.68 0 0 0 .935-1.099 3.46 3.46 0 0 0 .324-1.493v-5.384h2.103v10.02h-1.984v-1.353h-.119c-.29.486-.722.883-1.297 1.199a3.867 3.867 0 0 1-1.868.471c-1.205 0-2.127-.363-2.764-1.092v-.004ZM388.713 212.858h2.003v1.473h.12c.224-.509.606-.937 1.15-1.276a3.261 3.261 0 0 1 1.76-.51c.46 0 .865.074 1.22.216v2.179c-.536-.235-1.054-.354-1.552-.354-.748 0-1.362.289-1.849.867-.486.579-.725 1.281-.725 2.106v5.315h-2.123v-10.02l-.004.004Z"/></g><defs><linearGradient id="c" x1="242.713" x2="322.137" y1="111.768" y2="145.065" gradientUnits="userSpaceOnUse"><stop stop-color="#1F86FB"/><stop offset=".27" stop-color="#1F86FB"/><stop offset=".75" stop-color="#00AA47"/><stop offset="1" stop-color="#00AA47"/></linearGradient><linearGradient id="d" x1="108.909" x2="242.507" y1="245.674" y2="245.674" gradientUnits="userSpaceOnUse"><stop stop-color="#FFCB32"/><stop offset=".18" stop-color="#FFCB32"/><stop offset=".53" stop-color="#F46831"/><stop offset=".79" stop-color="#EA4335"/><stop offset="1" stop-color="#EA4335"/></linearGradient></defs></svg>