<svg width="287" height="280" viewBox="0 0 287 280" fill="none" xmlns="http://www.w3.org/2000/svg">
<mask id="mask0_352_46" style="mask-type:luminance" maskUnits="userSpaceOnUse" x="0" y="33" width="287" height="247">
<path d="M0.0449219 34.3203L286.261 33.948L286.591 279.628L0.374525 280L0.0449219 34.3203Z" fill="white"/>
</mask>
<g mask="url(#mask0_352_46)">
<path d="M0.853643 36.0485C24.8673 42.6166 51.374 50.9112 66.7071 71.6134C75.9648 84.1129 78.7286 99.2748 81.3476 114.176C84.0638 129.753 87.5017 145.198 92.2628 160.298C101.265 188.793 114.899 216.393 135.576 238.522C153.964 258.189 178.315 273.903 205.67 277.552C231.942 281.073 259.449 273.217 278.966 255.396C281.418 253.154 283.725 250.781 285.887 248.266C286.488 247.59 285.476 246.585 284.875 247.273C267.275 267.603 240.337 278.254 213.322 276.855C185.573 275.422 160.249 261.06 140.972 241.998C119.429 220.747 105.002 193.586 95.4341 165.329C90.4567 150.407 86.5739 135.211 83.8097 119.742C81.0583 104.805 79.2445 89.227 71.2972 75.8846C58.3091 54.1486 33.4604 44.039 9.95169 37.1503C7.05072 36.301 4.14978 35.4755 1.23687 34.6973C0.803593 34.6149 0.527067 34.7811 0.407313 35.2078C0.287546 35.6227 0.432318 35.9068 0.853643 36.0485Z" fill="url(#paint0_linear_352_46)"/>
</g>
<mask id="mask1_352_46" style="mask-type:luminance" maskUnits="userSpaceOnUse" x="0" y="27" width="287" height="235">
<path d="M0.0371094 28.2559L286.254 27.8836L286.567 261.431L0.350436 261.803L0.0371094 28.2559Z" fill="white"/>
</mask>
<g mask="url(#mask1_352_46)">
<path d="M0.846667 31.4305C24.3783 37.478 50.6552 44.9199 66.4079 64.4604C75.8692 76.2014 78.7405 90.7825 81.4069 105.151C84.1703 120.064 87.7277 134.822 92.6081 149.223C101.874 176.449 115.95 202.496 136.734 222.978C155.505 241.472 179.782 255.469 206.486 258.645C232.119 261.68 259.171 254.583 278.773 237.829C281.273 235.693 283.641 233.415 285.864 230.995C286.464 230.343 285.476 229.372 284.876 230.025C267.069 249.372 240.418 258.956 214.126 257.888C186.931 256.798 161.621 243.929 141.936 225.993C120.42 206.377 105.586 180.899 95.755 153.958C90.622 139.676 86.6317 125.084 83.7961 110.195C80.9974 95.9098 79.1124 80.9837 70.9977 68.4354C57.6259 47.778 32.7064 38.6993 9.81217 32.3904C6.94737 31.6003 4.09467 30.8576 1.24197 30.1149C0.796599 29.9852 0.508026 30.1396 0.376256 30.5781C0.244486 31.0166 0.401292 31.3008 0.846667 31.4305Z" fill="url(#paint1_linear_352_46)"/>
</g>
<mask id="mask2_352_46" style="mask-type:luminance" maskUnits="userSpaceOnUse" x="0" y="24" width="287" height="217">
<path d="M0.0327148 25.2207L286.249 24.8484L286.538 240.197L0.321626 240.57L0.0327148 25.2207Z" fill="white"/>
</mask>
<g mask="url(#mask2_352_46)">
<path d="M0.853161 26.808C13.0701 29.7423 25.3235 32.949 36.9173 37.7916C47.873 42.3744 58.4097 48.5453 66.2188 57.5159C70.5332 62.5339 73.8135 68.1337 76.0479 74.3392C78.6202 81.3854 80.0259 88.7767 81.4797 96.1087C84.2902 110.299 87.9068 124.31 92.9065 137.917C102.423 163.828 116.895 188.228 137.628 207.04C156.855 224.49 181.262 237.112 207.544 239.744C232.672 242.259 259.207 235.838 278.883 219.984C281.323 218.037 283.63 215.961 285.817 213.754C286.418 213.149 285.466 212.215 284.865 212.82C266.865 231.136 240.513 239.713 214.919 238.952C188.278 238.158 163.019 226.757 142.95 209.947C121.4 191.919 106.062 167.935 95.9323 142.155C90.7765 128.797 86.7634 115.13 83.8929 101.129C81.0228 87.3892 79.0783 73.0201 70.7961 61.1947C57.0648 41.6278 32.3151 33.4967 10.0352 27.7202C7.09825 26.9776 4.14933 26.2587 1.21247 25.5635C0.369925 25.3632 0.010648 26.6314 0.853193 26.8317L0.853161 26.808Z" fill="url(#paint2_linear_352_46)"/>
</g>
<mask id="mask3_352_46" style="mask-type:luminance" maskUnits="userSpaceOnUse" x="0" y="18" width="287" height="205">
<path d="M0.0249023 19.1562L286.241 18.7839L286.514 222.001L0.297537 222.373L0.0249023 19.1562Z" fill="white"/>
</mask>
<g mask="url(#mask3_352_46)">
<path d="M0.8467 22.1998C12.8828 24.8736 24.8831 27.7845 36.368 32.2007C47.1547 36.3571 57.7508 41.9593 65.7877 50.3373C70.2099 54.9759 73.5861 60.2439 75.9283 66.1648C78.5602 72.7608 79.9894 79.7374 81.4547 86.6547C84.3245 100.158 88.0243 113.47 93.1313 126.342C102.995 151.163 118.042 174.081 138.918 191.328C158.553 207.534 182.885 218.675 208.614 220.834C233.271 222.899 259.506 217.047 279.267 201.998C281.551 200.266 283.714 198.415 285.781 196.457C286.382 195.887 285.467 194.988 284.866 195.558C266.66 212.82 240.62 220.46 215.676 219.936C189.612 219.413 164.475 209.375 144.011 193.75C122.523 177.333 106.682 155.009 96.2172 130.473C90.8576 117.696 86.6888 104.562 83.7347 91.0592C80.8174 78.042 78.7297 64.538 70.2923 53.637C63.5665 44.9138 54.1367 38.7058 44.1436 34.0981C33.2113 29.0651 21.5113 25.7747 9.81193 22.9582C6.94726 22.2629 4.07061 21.6032 1.19399 20.9671C0.387558 20.7786 0.0522847 21.9994 0.846684 22.1879L0.8467 22.1998Z" fill="url(#paint3_linear_352_46)"/>
</g>
<mask id="mask4_352_46" style="mask-type:luminance" maskUnits="userSpaceOnUse" x="0" y="15" width="287" height="190">
<path d="M0.0205078 16.1221L286.237 15.7498L286.489 203.801L0.272797 204.173L0.0205078 16.1221Z" fill="white"/>
</mask>
<g mask="url(#mask4_352_46)">
<path d="M0.853638 17.5554C12.721 20.0281 24.6007 22.7021 36.0249 26.7274C46.7389 30.5048 57.3825 35.5975 65.5992 43.4776C69.9244 47.6069 73.2999 52.3773 75.7377 57.8005C78.5498 64.1237 80.0269 70.9106 81.552 77.6146C84.3847 90.395 88.3601 102.83 93.4901 114.897C103.689 138.461 119.239 159.601 139.98 175.225C160.023 190.353 184.402 200.167 209.708 201.888C233.691 203.539 259.374 198.351 279.112 184.404C281.408 182.766 283.62 181.022 285.735 179.171C286.312 178.637 285.457 177.785 284.856 178.307C266.6 194.409 241.088 201.171 216.939 200.942C191.345 200.703 166.354 192.027 145.47 177.659C124.009 162.901 107.629 142.354 96.7083 119.051C91.1452 107.021 86.8209 94.5741 83.7594 81.7112C80.7588 69.3695 78.588 56.7068 70.1878 46.5995C63.2941 38.3148 53.6845 32.5929 43.7761 28.4235C32.8685 23.8406 21.3494 20.8107 9.80676 18.2547C6.93012 17.6068 4.05352 16.9825 1.17694 16.382C0.406656 16.229 0.0713213 17.4024 0.853638 17.5554Z" fill="url(#paint4_linear_352_46)"/>
</g>
<mask id="mask5_352_46" style="mask-type:luminance" maskUnits="userSpaceOnUse" x="0" y="9" width="287" height="177">
<path d="M0.012207 10.0566L286.229 9.68434L286.465 185.603L0.248219 185.976L0.012207 10.0566Z" fill="white"/>
</mask>
<g mask="url(#mask5_352_46)">
<path d="M0.88261 12.9352C12.6655 15.1947 24.4726 17.6318 35.8964 21.3373C46.4054 24.7595 57.0242 29.3072 65.4327 36.642C69.6489 40.2857 72.9997 44.5822 75.5091 49.5314C78.5013 55.5344 80.0262 62.1081 81.6352 68.5632C84.5633 80.6799 88.67 92.3922 93.9795 103.7C104.61 125.913 120.699 145.24 141.306 159.194C161.743 173.041 186.036 181.588 210.885 182.93C234.374 184.202 259.504 179.573 279.316 166.597C281.528 165.137 283.668 163.582 285.723 161.909C286.288 161.434 285.469 160.606 284.88 161.081C266.406 176.069 241.326 182.002 217.767 181.937C192.691 181.887 167.918 174.408 146.747 161.308C125.432 148.113 108.489 129.368 97.1128 107.31C91.4064 96.1208 86.9748 84.4562 83.8301 72.328C82.1975 66.181 80.9618 59.915 78.7037 53.9465C76.723 48.499 73.7806 43.6096 69.8521 39.2784C62.7909 31.6574 53.2905 26.6225 43.6474 22.8674C32.7402 18.6045 21.2696 15.8707 9.79947 13.516C6.92293 12.9392 4.04641 12.3742 1.16988 11.8092C0.423658 11.6562 0.100311 12.794 0.858529 12.9234L0.88261 12.9352Z" fill="url(#paint5_linear_352_46)"/>
</g>
<mask id="mask6_352_46" style="mask-type:luminance" maskUnits="userSpaceOnUse" x="0" y="6" width="287" height="159">
<path d="M0.0078125 7.02246L286.224 6.65016L286.436 164.371L0.219409 164.743L0.0078125 7.02246Z" fill="white"/>
</mask>
<g mask="url(#mask6_352_46)">
<path d="M0.875236 8.31323C12.5856 10.3596 24.2842 12.5718 35.7075 15.9454C45.9874 18.9888 56.4249 22.9799 64.9287 29.5919C69.2648 32.8918 72.7596 36.9037 75.4252 41.6276C78.4286 47.0857 80.0009 53.1261 81.6213 59.0954C84.6327 70.5248 88.8708 81.5024 94.3357 92.0282C99.8726 102.495 106.732 112.047 114.914 120.685C123.095 129.324 132.298 136.741 142.522 142.924C152.914 149.213 163.931 154.14 175.583 157.691C187.235 161.242 199.162 163.312 211.34 163.9C234.444 164.96 259.141 160.935 279.123 149.002C281.335 147.672 283.475 146.247 285.543 144.716C286.108 144.277 285.541 143.306 284.964 143.746C266.404 157.537 241.973 162.746 219.075 162.942C206.682 162.994 194.491 161.505 182.491 158.452C170.502 155.411 159.101 150.911 148.288 144.966C137.716 139.198 128.129 132.125 119.526 123.772C110.924 115.406 103.644 106.068 97.6496 95.7323C91.7035 85.2782 87.0803 74.2774 83.792 62.7418C82.1238 56.9621 80.8284 51.0516 78.4986 45.4624C76.4343 40.4415 73.4684 36.0024 69.5767 32.1568C62.3718 25.1285 52.9083 20.6386 43.4582 17.2742C32.4794 13.3668 21.0211 10.8936 9.57532 8.75214C6.77104 8.22262 3.96679 7.71681 1.15054 7.2347C0.42841 7.10532 0.12903 8.17202 0.875236 8.31323Z" fill="url(#paint6_linear_352_46)"/>
</g>
<mask id="mask7_352_46" style="mask-type:luminance" maskUnits="userSpaceOnUse" x="0" y="0" width="287" height="147">
<path d="M0 0.958008L286.217 0.585706L286.412 146.174L0.19532 146.546L0 0.958008Z" fill="white"/>
</mask>
<g mask="url(#mask7_352_46)">
<path d="M0.869614 3.68295C12.4353 5.51619 24.0253 7.49158 35.3519 10.5099C45.523 13.2099 55.8516 16.7153 64.5471 22.7228C68.8104 25.5726 72.3407 29.1343 75.1259 33.3959C78.3455 38.5101 80.0017 44.3135 81.706 50.022C84.8367 60.7048 89.2061 70.8647 94.8502 80.5017C106.512 100.13 123.752 115.819 144.005 126.645C154.589 132.259 165.689 136.616 177.292 139.706C188.908 142.795 200.726 144.533 212.747 144.932C235.213 145.661 259.116 142.135 279.004 131.374C281.24 130.163 283.416 128.857 285.52 127.432C286.097 127.053 285.554 126.117 284.953 126.509C266.272 139.092 242.393 143.614 220.097 143.915C207.873 144.085 195.802 142.845 183.875 140.195C171.947 137.556 160.499 133.578 149.542 128.261C128.736 118.146 110.679 103.146 98.1637 83.8385C92.0503 74.2733 87.2718 64.102 83.8522 53.3248C82.1364 48.0073 80.8296 42.547 78.5125 37.4436C76.3281 32.6124 73.2302 28.4578 69.1946 24.9679C61.762 18.5441 52.3713 14.6109 43.0542 11.6373C32.2083 8.17997 20.979 5.979 9.75011 4.06238C6.89774 3.56847 4.03339 3.11013 1.14498 2.65181C0.458997 2.55792 0.159554 3.57724 0.869614 3.68295Z" fill="url(#paint7_linear_352_46)"/>
</g>
<defs>
<linearGradient id="paint0_linear_352_46" x1="0.529384" y1="156.668" x2="285.949" y2="156.285" gradientUnits="userSpaceOnUse">
<stop stop-color="#787FF6"/>
<stop offset="1" stop-color="#FF008A"/>
</linearGradient>
<linearGradient id="paint1_linear_352_46" x1="0.484053" y1="144.841" x2="285.935" y2="144.458" gradientUnits="userSpaceOnUse">
<stop stop-color="#787FF6"/>
<stop offset="1" stop-color="#FF008A"/>
</linearGradient>
<linearGradient id="paint2_linear_352_46" x1="0.516301" y1="133.05" x2="285.9" y2="132.667" gradientUnits="userSpaceOnUse">
<stop stop-color="#787FF6"/>
<stop offset="1" stop-color="#FF008A"/>
</linearGradient>
<linearGradient id="paint3_linear_352_46" x1="0.52712" y1="121.233" x2="285.877" y2="120.85" gradientUnits="userSpaceOnUse">
<stop stop-color="#787FF6"/>
<stop offset="1" stop-color="#FF008A"/>
</linearGradient>
<linearGradient id="paint4_linear_352_46" x1="0.531572" y1="109.418" x2="285.833" y2="109.035" gradientUnits="userSpaceOnUse">
<stop stop-color="#787FF6"/>
<stop offset="1" stop-color="#FF008A"/>
</linearGradient>
<linearGradient id="paint5_linear_352_46" x1="0.539927" y1="97.6059" x2="285.827" y2="97.2232" gradientUnits="userSpaceOnUse">
<stop stop-color="#787FF6"/>
<stop offset="1" stop-color="#FF008A"/>
</linearGradient>
<linearGradient id="paint6_linear_352_46" x1="0.546315" y1="85.7853" x2="285.697" y2="85.4028" gradientUnits="userSpaceOnUse">
<stop stop-color="#787FF6"/>
<stop offset="1" stop-color="#FF008A"/>
</linearGradient>
<linearGradient id="paint7_linear_352_46" x1="0.557122" y1="73.9768" x2="285.694" y2="73.5942" gradientUnits="userSpaceOnUse">
<stop stop-color="#787FF6"/>
<stop offset="1" stop-color="#FF008A"/>
</linearGradient>
</defs>
</svg>
